<svg xmlns="http://www.w3.org/2000/svg" xmlns:xlink="http://www.w3.org/1999/xlink" width="2444" zoomAndPan="magnify" viewBox="0 0 1832.88 1439.999935" height="1920" preserveAspectRatio="xMidYMid meet" version="1.0"><defs><clipPath id="937425b287"><path d="M 279.601562 1171 L 613 1171 L 613 1296.3125 L 279.601562 1296.3125 Z M 279.601562 1171 " clip-rule="nonzero"/></clipPath><clipPath id="b0f066044c"><path d="M 279.601562 756 L 613 756 L 613 1214 L 279.601562 1214 Z M 279.601562 756 " clip-rule="nonzero"/></clipPath><clipPath id="e6c18b468d"><path d="M 1152 91.140625 L 1485 91.140625 L 1485 549 L 1152 549 Z M 1152 91.140625 " clip-rule="nonzero"/></clipPath><clipPath id="9f91ecb2f3"><path d="M 508 319 L 1505.769531 319 L 1505.769531 1193 L 508 1193 Z M 508 319 " clip-rule="nonzero"/></clipPath></defs><g clip-path="url(#937425b287)"><path fill="#facb07" d="M 612.277344 1233.972656 C 612.277344 1268.390625 537.875 1296.3125 446.109375 1296.3125 C 354.34375 1296.3125 279.941406 1268.390625 279.941406 1233.972656 C 279.941406 1199.558594 354.34375 1171.636719 446.109375 1171.636719 C 537.875 1171.636719 612.277344 1199.558594 612.277344 1233.972656 " fill-opacity="1" fill-rule="nonzero"/></g><path fill="#facb07" d="M 1484.65625 569.050781 C 1484.65625 603.46875 1410.257812 631.390625 1318.492188 631.390625 C 1226.726562 631.390625 1152.324219 603.46875 1152.324219 569.050781 C 1152.324219 534.636719 1226.726562 506.714844 1318.492188 506.714844 C 1410.257812 506.714844 1484.65625 534.636719 1484.65625 569.050781 " fill-opacity="1" fill-rule="nonzero"/><g clip-path="url(#b0f066044c)"><path fill="#4466b9" d="M 612.277344 922.292969 C 612.277344 988.363281 526.273438 1109.949219 478.078125 1172.855469 C 459.171875 1197.613281 446.109375 1213.195312 446.109375 1213.195312 C 446.109375 1213.195312 433.046875 1197.613281 414.140625 1172.855469 C 365.945312 1109.949219 279.941406 988.363281 279.941406 922.292969 C 279.941406 830.492188 354.34375 756.0625 446.109375 756.0625 C 537.875 756.0625 612.277344 830.492188 612.277344 922.292969 " fill-opacity="1" fill-rule="nonzero"/></g><g clip-path="url(#e6c18b468d)"><path fill="#ec1d27" d="M 1484.65625 257.371094 C 1484.65625 323.441406 1398.652344 445.027344 1350.457031 507.933594 C 1331.554688 532.6875 1318.492188 548.273438 1318.492188 548.273438 C 1318.492188 548.273438 1305.425781 532.6875 1286.523438 507.933594 C 1238.328125 445.027344 1152.324219 323.441406 1152.324219 257.371094 C 1152.324219 165.570312 1226.726562 91.140625 1318.492188 91.140625 C 1410.257812 91.140625 1484.65625 165.570312 1484.65625 257.371094 " fill-opacity="1" fill-rule="nonzero"/></g><path fill="#d5ebf9" d="M 1318.492188 174.253906 C 1364.414062 174.253906 1401.574219 211.429688 1401.574219 257.371094 C 1401.574219 303.3125 1364.414062 340.484375 1318.492188 340.484375 C 1272.566406 340.484375 1235.40625 303.3125 1235.40625 257.371094 C 1235.40625 211.429688 1272.566406 174.253906 1318.492188 174.253906 " fill-opacity="1" fill-rule="nonzero"/><path fill="#d5ebf9" d="M 446.109375 839.175781 C 492.035156 839.175781 529.195312 876.351562 529.195312 922.292969 C 529.195312 968.234375 492.035156 1005.40625 446.109375 1005.40625 C 400.1875 1005.40625 363.027344 968.234375 363.027344 922.292969 C 363.027344 876.351562 400.1875 839.175781 446.109375 839.175781 " fill-opacity="1" fill-rule="nonzero"/><path fill="#d11e26" d="M 1401.574219 257.371094 C 1401.574219 303.3125 1364.414062 340.484375 1318.492188 340.484375 C 1303.316406 340.484375 1289.28125 336.101562 1277.03125 329.039062 C 1254.148438 350.710938 1230.699219 371.898438 1206.277344 391.863281 C 1232.808594 435.613281 1263.804688 478.308594 1286.523438 507.933594 C 1305.425781 532.6875 1318.492188 548.273438 1318.492188 548.273438 C 1318.492188 548.273438 1331.554688 532.6875 1350.457031 507.933594 C 1398.652344 445.027344 1484.65625 323.441406 1484.65625 257.371094 C 1484.65625 213.378906 1467.457031 173.441406 1439.546875 143.734375 C 1422.832031 166.707031 1405.710938 189.351562 1387.617188 211.265625 C 1396.382812 224.417969 1401.574219 240.242188 1401.574219 257.371094 " fill-opacity="1" fill-rule="nonzero"/><path fill="#b9ccda" d="M 1401.574219 257.371094 C 1401.574219 240.242188 1396.382812 224.417969 1387.617188 211.265625 C 1353.21875 252.742188 1316.136719 291.949219 1277.03125 329.039062 C 1289.28125 336.101562 1303.316406 340.484375 1318.492188 340.484375 C 1364.414062 340.484375 1401.574219 303.3125 1401.574219 257.371094 " fill-opacity="1" fill-rule="nonzero"/><path fill="#3b5bb2" d="M 529.195312 922.292969 C 529.195312 968.234375 492.035156 1005.40625 446.109375 1005.40625 C 430.9375 1005.40625 416.902344 1001.023438 404.648438 993.960938 C 381.769531 1015.632812 358.238281 1036.820312 333.898438 1056.785156 C 360.429688 1100.535156 391.425781 1143.230469 414.140625 1172.855469 C 433.046875 1197.613281 446.109375 1213.195312 446.109375 1213.195312 C 446.109375 1213.195312 459.171875 1197.613281 478.078125 1172.855469 C 526.273438 1109.949219 612.277344 988.363281 612.277344 922.292969 C 612.277344 878.300781 595.078125 838.363281 567.164062 808.65625 C 550.453125 831.628906 533.25 854.273438 515.15625 876.1875 C 524 889.339844 529.195312 905.164062 529.195312 922.292969 " fill-opacity="1" fill-rule="nonzero"/><path fill="#b9ccda" d="M 529.195312 922.292969 C 529.195312 905.164062 524 889.339844 515.15625 876.1875 C 480.835938 917.664062 443.757812 956.871094 404.648438 993.960938 C 416.902344 1001.023438 430.9375 1005.40625 446.109375 1005.40625 C 492.035156 1005.40625 529.195312 968.234375 529.195312 922.292969 " fill-opacity="1" fill-rule="nonzero"/><g clip-path="url(#9f91ecb2f3)"><path fill="#7a7d82" d="M 1276.949219 1192.417969 L 674.589844 1192.417969 C 663.148438 1192.417969 653.820312 1183.082031 653.820312 1171.636719 C 653.820312 1160.191406 663.148438 1150.859375 674.589844 1150.859375 L 1276.949219 1150.859375 C 1380.074219 1150.859375 1463.886719 1066.933594 1463.886719 963.851562 C 1463.886719 860.765625 1380.074219 776.839844 1276.949219 776.839844 L 736.902344 776.839844 C 610.898438 776.839844 508.421875 674.328125 508.421875 548.273438 C 508.421875 422.222656 610.898438 319.707031 736.902344 319.707031 L 1090.011719 319.707031 C 1101.449219 319.707031 1110.78125 329.039062 1110.78125 340.484375 C 1110.78125 351.929688 1101.449219 361.265625 1090.011719 361.265625 L 736.902344 361.265625 C 633.859375 361.265625 549.964844 445.191406 549.964844 548.273438 C 549.964844 651.355469 633.859375 735.28125 736.902344 735.28125 L 1276.949219 735.28125 C 1402.953125 735.28125 1505.429688 837.796875 1505.429688 963.851562 C 1505.429688 1089.902344 1402.953125 1192.417969 1276.949219 1192.417969 " fill-opacity="1" fill-rule="nonzero"/></g></svg>